<mxfile host="65bd71144e">
    <diagram id="mAEWty-iSjEcRen5ad8A" name="第 1 页">
        <mxGraphModel dx="812" dy="842" grid="1" gridSize="10" guides="1" tooltips="1" connect="1" arrows="1" fold="1" page="1" pageScale="1" pageWidth="827" pageHeight="1169" math="0" shadow="0">
            <root>
                <mxCell id="0"/>
                <mxCell id="1" parent="0"/>
                <mxCell id="2" value="" style="rounded=0;whiteSpace=wrap;html=1;" vertex="1" parent="1">
                    <mxGeometry x="119" y="50" width="601" height="340" as="geometry"/>
                </mxCell>
                <mxCell id="3" value="pv 【每个页面发送一次，多次刷新一个页面至少间隔一定时间才上报】" style="rounded=0;whiteSpace=wrap;html=1;" vertex="1" parent="1">
                    <mxGeometry x="159" y="120" width="480" height="60" as="geometry"/>
                </mxCell>
                <mxCell id="4" value="show&amp;nbsp; or&amp;nbsp; click&lt;br&gt;同一个页面中，每次点击上报一次&lt;br&gt;同一个页面中，展示元素曝光，只能上报一次 【与pv频次一致】" style="rounded=1;whiteSpace=wrap;html=1;" vertex="1" parent="1">
                    <mxGeometry x="159" y="210" width="480" height="50" as="geometry"/>
                </mxCell>
                <mxCell id="5" value="heart 【间隔一定时间发送一次请求】" style="rounded=1;whiteSpace=wrap;html=1;" vertex="1" parent="1">
                    <mxGeometry x="159" y="300" width="480" height="60" as="geometry"/>
                </mxCell>
                <mxCell id="6" value="&lt;h2&gt;&lt;font color=&quot;#ff1c3a&quot;&gt;上报事件类型&lt;/font&gt;&lt;/h2&gt;" style="rounded=1;whiteSpace=wrap;html=1;" vertex="1" parent="1">
                    <mxGeometry x="159" y="70" width="190" height="40" as="geometry"/>
                </mxCell>
                <mxCell id="7" value="" style="rounded=0;whiteSpace=wrap;html=1;fontColor=#FF1C3A;" vertex="1" parent="1">
                    <mxGeometry x="119" y="440" width="601" height="250" as="geometry"/>
                </mxCell>
                <mxCell id="9" value="&lt;h2&gt;&lt;font color=&quot;#ff1c3a&quot;&gt;如何约定上报机制&lt;/font&gt;&lt;/h2&gt;" style="rounded=1;whiteSpace=wrap;html=1;" vertex="1" parent="1">
                    <mxGeometry x="150" y="460" width="190" height="40" as="geometry"/>
                </mxCell>
                <mxCell id="10" value="与接口域名差异化处理" style="rounded=1;whiteSpace=wrap;html=1;fontColor=#FFFFFF;" vertex="1" parent="1">
                    <mxGeometry x="150" y="525" width="490" height="45" as="geometry"/>
                </mxCell>
                <mxCell id="11" value="get 请求 &amp;amp;&amp;nbsp; post请求" style="rounded=1;whiteSpace=wrap;html=1;fontColor=#FFFFFF;" vertex="1" parent="1">
                    <mxGeometry x="150" y="600" width="490" height="45" as="geometry"/>
                </mxCell>
                <mxCell id="12" value="" style="rounded=0;whiteSpace=wrap;html=1;fontColor=#FF1C3A;" vertex="1" parent="1">
                    <mxGeometry x="119" y="750" width="601" height="250" as="geometry"/>
                </mxCell>
                <mxCell id="13" value="&lt;h2&gt;&lt;font color=&quot;#ff1c3a&quot;&gt;如何约定pv机制&lt;/font&gt;&lt;/h2&gt;" style="rounded=1;whiteSpace=wrap;html=1;" vertex="1" parent="1">
                    <mxGeometry x="150" y="770" width="190" height="40" as="geometry"/>
                </mxCell>
                <mxCell id="14" value="" style="rounded=1;whiteSpace=wrap;html=1;fontColor=#FFFFFF;" vertex="1" parent="1">
                    <mxGeometry x="150" y="835" width="490" height="45" as="geometry"/>
                </mxCell>
                <mxCell id="15" value="" style="rounded=1;whiteSpace=wrap;html=1;fontColor=#FFFFFF;" vertex="1" parent="1">
                    <mxGeometry x="150" y="910" width="490" height="45" as="geometry"/>
                </mxCell>
                <mxCell id="16" value="" style="rounded=0;whiteSpace=wrap;html=1;fontColor=#FF1C3A;" vertex="1" parent="1">
                    <mxGeometry x="119" y="1080" width="601" height="250" as="geometry"/>
                </mxCell>
                <mxCell id="17" value="&lt;h2&gt;&lt;font color=&quot;#ff1c3a&quot;&gt;如何约定heart机制&lt;/font&gt;&lt;/h2&gt;" style="rounded=1;whiteSpace=wrap;html=1;" vertex="1" parent="1">
                    <mxGeometry x="150" y="1100" width="190" height="40" as="geometry"/>
                </mxCell>
                <mxCell id="18" value="" style="rounded=1;whiteSpace=wrap;html=1;fontColor=#FFFFFF;" vertex="1" parent="1">
                    <mxGeometry x="150" y="1165" width="490" height="45" as="geometry"/>
                </mxCell>
                <mxCell id="19" value="" style="rounded=1;whiteSpace=wrap;html=1;fontColor=#FFFFFF;" vertex="1" parent="1">
                    <mxGeometry x="150" y="1240" width="490" height="45" as="geometry"/>
                </mxCell>
                <mxCell id="20" value="" style="rounded=0;whiteSpace=wrap;html=1;fontColor=#FF1C3A;" vertex="1" parent="1">
                    <mxGeometry x="119" y="1410" width="601" height="250" as="geometry"/>
                </mxCell>
                <mxCell id="21" value="&lt;h2&gt;&lt;font color=&quot;#ff1c3a&quot;&gt;如何约定元素暴光机制&lt;/font&gt;&lt;/h2&gt;" style="rounded=1;whiteSpace=wrap;html=1;" vertex="1" parent="1">
                    <mxGeometry x="150" y="1430" width="190" height="40" as="geometry"/>
                </mxCell>
                <mxCell id="22" value="" style="rounded=1;whiteSpace=wrap;html=1;fontColor=#FFFFFF;" vertex="1" parent="1">
                    <mxGeometry x="150" y="1495" width="490" height="45" as="geometry"/>
                </mxCell>
                <mxCell id="23" value="" style="rounded=1;whiteSpace=wrap;html=1;fontColor=#FFFFFF;" vertex="1" parent="1">
                    <mxGeometry x="150" y="1570" width="490" height="45" as="geometry"/>
                </mxCell>
                <mxCell id="24" value="" style="rounded=0;whiteSpace=wrap;html=1;fontColor=#FF1C3A;" vertex="1" parent="1">
                    <mxGeometry x="119" y="1730" width="601" height="250" as="geometry"/>
                </mxCell>
                <mxCell id="25" value="&lt;h2&gt;&lt;font color=&quot;#ff1c3a&quot;&gt;如何约定数据整合机制&lt;/font&gt;&lt;/h2&gt;" style="rounded=1;whiteSpace=wrap;html=1;" vertex="1" parent="1">
                    <mxGeometry x="150" y="1750" width="190" height="40" as="geometry"/>
                </mxCell>
                <mxCell id="26" value="" style="rounded=1;whiteSpace=wrap;html=1;fontColor=#FFFFFF;" vertex="1" parent="1">
                    <mxGeometry x="150" y="1815" width="490" height="45" as="geometry"/>
                </mxCell>
                <mxCell id="27" value="" style="rounded=1;whiteSpace=wrap;html=1;fontColor=#FFFFFF;" vertex="1" parent="1">
                    <mxGeometry x="150" y="1890" width="490" height="45" as="geometry"/>
                </mxCell>
            </root>
        </mxGraphModel>
    </diagram>
</mxfile>